# xmcd CD database file
#
# Track frame offsets:
#	150
#	37315
#	70045
#	102331
#	124018
#	129027
#	164584
#	201271
#	228032
#	250671
#	260665
#
# Disc length: 3932 seconds
#
# Revision: 2
# Processed by: cddbd v1.5.2PL0 Copyright (c) Steve Scherf et al.
# Submitted via: CDex 1.89
#
DISCID=950f5a0b
DTITLE=Tobias Hoffmann's Fallschirme - Self Titled
DYEAR=2007
DGENRE=Jazz
TTITLE0=Nummer Acht
TTITLE1=Zwei Weiden
TTITLE2=Kurzer Ausflug
TTITLE3=Heimweg
TTITLE4=Abgekapselt
TTITLE5=Joe Dalton
TTITLE6=Irving
TTITLE7=Schwebo
TTITLE8=Die Zeit rast - ohne uns
TTITLE9=Gekappte Verbindung (Outro)
TTITLE10=Das vierte End
EXTD=YEAR: 2007
EXTT0=
EXTT1=
EXTT2=
EXTT3=
EXTT4=
EXTT5=
EXTT6=
EXTT7=
EXTT8=
EXTT9=
EXTT10=
PLAYORDER=
